<mxfile host="Electron" agent="Mozilla/5.0 (Windows NT 10.0; Win64; x64) AppleWebKit/537.36 (KHTML, like Gecko) draw.io/26.2.2 Chrome/134.0.6998.178 Electron/35.1.2 Safari/537.36" version="26.2.2">
  <diagram name="Seite-1" id="Ym3PqY9C-uvmVgFrBCGF">
    <mxGraphModel dx="1855" dy="643" grid="1" gridSize="10" guides="1" tooltips="1" connect="1" arrows="1" fold="1" page="1" pageScale="1" pageWidth="827" pageHeight="1169" math="0" shadow="0">
      <root>
        <mxCell id="0" />
        <mxCell id="1" parent="0" />
        <mxCell id="pLngcvN7gk5QqAFXUD4E-10" style="edgeStyle=orthogonalEdgeStyle;rounded=0;orthogonalLoop=1;jettySize=auto;html=1;exitX=0.5;exitY=1;exitDx=0;exitDy=0;strokeColor=#457B9D;fontColor=default;fillColor=#A8DADC;endArrow=none;startFill=0;labelBackgroundColor=none;entryX=0.5;entryY=0;entryDx=0;entryDy=0;" parent="1" source="pLngcvN7gk5QqAFXUD4E-11" target="pLngcvN7gk5QqAFXUD4E-50" edge="1">
          <mxGeometry relative="1" as="geometry">
            <mxPoint x="510" y="570" as="targetPoint" />
          </mxGeometry>
        </mxCell>
        <mxCell id="pLngcvN7gk5QqAFXUD4E-13" style="edgeStyle=orthogonalEdgeStyle;rounded=0;orthogonalLoop=1;jettySize=auto;html=1;entryX=0;entryY=0.5;entryDx=0;entryDy=0;strokeColor=#457B9D;fontColor=default;fillColor=#A8DADC;endArrow=none;startFill=0;labelBackgroundColor=none;exitX=0.975;exitY=0.617;exitDx=0;exitDy=0;exitPerimeter=0;" parent="1" source="pLngcvN7gk5QqAFXUD4E-15" target="pLngcvN7gk5QqAFXUD4E-57" edge="1">
          <mxGeometry relative="1" as="geometry">
            <mxPoint x="560" y="590" as="sourcePoint" />
            <mxPoint x="720" y="670" as="targetPoint" />
          </mxGeometry>
        </mxCell>
        <mxCell id="pLngcvN7gk5QqAFXUD4E-49" style="edgeStyle=orthogonalEdgeStyle;shape=connector;rounded=0;orthogonalLoop=1;jettySize=auto;html=1;entryX=0.5;entryY=1;entryDx=0;entryDy=0;strokeColor=#457B9D;align=center;verticalAlign=middle;fontFamily=Helvetica;fontSize=11;fontColor=default;labelBackgroundColor=none;startFill=0;endArrow=none;fillColor=#A8DADC;" parent="1" source="pLngcvN7gk5QqAFXUD4E-11" target="pLngcvN7gk5QqAFXUD4E-41" edge="1">
          <mxGeometry relative="1" as="geometry" />
        </mxCell>
        <mxCell id="pLngcvN7gk5QqAFXUD4E-11" value="consists of" style="shape=rhombus;perimeter=rhombusPerimeter;whiteSpace=wrap;html=1;align=center;strokeColor=#457B9D;fontColor=#1D3557;fillColor=#A8DADC;labelBackgroundColor=none;" parent="1" vertex="1">
          <mxGeometry x="550" y="460" width="120" height="60" as="geometry" />
        </mxCell>
        <mxCell id="pLngcvN7gk5QqAFXUD4E-32" value="" style="edgeStyle=orthogonalEdgeStyle;shape=connector;rounded=0;orthogonalLoop=1;jettySize=auto;html=1;entryX=1;entryY=0.5;entryDx=0;entryDy=0;strokeColor=#457B9D;align=center;verticalAlign=middle;fontFamily=Helvetica;fontSize=11;fontColor=default;labelBackgroundColor=none;startFill=0;endArrow=none;fillColor=#A8DADC;exitX=-0.025;exitY=0.086;exitDx=0;exitDy=0;exitPerimeter=0;" parent="1" source="pLngcvN7gk5QqAFXUD4E-40" target="pLngcvN7gk5QqAFXUD4E-31" edge="1">
          <mxGeometry relative="1" as="geometry">
            <mxPoint x="380" y="180" as="sourcePoint" />
            <mxPoint x="-10" y="320" as="targetPoint" />
          </mxGeometry>
        </mxCell>
        <mxCell id="pLngcvN7gk5QqAFXUD4E-31" value="participates" style="shape=rhombus;perimeter=rhombusPerimeter;whiteSpace=wrap;html=1;align=center;strokeColor=#457B9D;fontFamily=Helvetica;fontSize=11;fontColor=#1D3557;labelBackgroundColor=none;fillColor=#A8DADC;" parent="1" vertex="1">
          <mxGeometry x="200" y="230" width="120" height="60" as="geometry" />
        </mxCell>
        <mxCell id="pLngcvN7gk5QqAFXUD4E-37" value="&lt;h1 style=&quot;margin-top: 0px;&quot;&gt;Entity&amp;nbsp;&lt;/h1&gt;&lt;div&gt;&lt;ul&gt;&lt;li&gt;&lt;font style=&quot;font-size: 14px;&quot;&gt;Person(&lt;u&gt;PNR,&amp;nbsp;&lt;/u&gt;Name, &lt;i&gt;LVANR&lt;/i&gt;)&amp;nbsp;&lt;/font&gt;&lt;/li&gt;&lt;li&gt;&lt;font style=&quot;font-size: 14px;&quot;&gt;Course(&lt;u style=&quot;&quot;&gt;&lt;u style=&quot;font-size: 12px;&quot;&gt;LVANR&lt;/u&gt;, &lt;/u&gt;Name, Size, Max_Participants, &lt;i&gt;PNR,Definition,Learning Module ID&lt;/i&gt;)&lt;/font&gt;&lt;/li&gt;&lt;li&gt;&lt;span style=&quot;background-color: transparent; color: light-dark(rgb(29, 53, 87), rgb(176, 196, 226)); font-size: 14px;&quot;&gt;Leanrning Module(&lt;u&gt;Learning_&lt;/u&gt;&lt;/span&gt;&lt;span style=&quot;background-color: transparent; color: light-dark(rgb(29, 53, 87), rgb(176, 196, 226)); font-size: 14px;&quot;&gt;&lt;u&gt;Module_ID,&lt;/u&gt;&lt;/span&gt;&lt;span style=&quot;background-color: transparent; color: light-dark(rgb(29, 53, 87), rgb(176, 196, 226)); font-size: 14px;&quot;&gt;&amp;nbsp;&lt;/span&gt;&lt;span style=&quot;background-color: transparent; color: light-dark(rgb(29, 53, 87), rgb(176, 196, 226)); font-size: 14px;&quot;&gt;Name, &lt;i&gt;LVANR&lt;/i&gt;)&lt;/span&gt;&lt;/li&gt;&lt;li&gt;&lt;span style=&quot;font-size: 14px;&quot;&gt;Objects(&lt;u&gt;Name,&lt;/u&gt;&amp;nbsp;Type, &lt;i&gt;Learning Module ID&lt;/i&gt;)&lt;/span&gt;&lt;/li&gt;&lt;li&gt;&lt;span style=&quot;font-size: 14px;&quot;&gt;Test Module (&lt;u style=&quot;&quot;&gt;Definition.&lt;/u&gt;&amp;nbsp;&lt;i&gt;LVANR)&lt;/i&gt;&lt;/span&gt;&lt;/li&gt;&lt;li&gt;&lt;span style=&quot;font-size: 14px;&quot;&gt;&lt;i&gt;MC Test(&lt;/i&gt;&lt;u&gt;MC ID,&lt;/u&gt;&amp;nbsp; Time,&amp;nbsp;&lt;i style=&quot;&quot;&gt;Definintion)&lt;/i&gt;&lt;/span&gt;&lt;/li&gt;&lt;li&gt;&lt;span style=&quot;font-size: 14px;&quot;&gt;&lt;i style=&quot;&quot;&gt;Question(Q&lt;/i&gt;&lt;u&gt;ID&lt;/u&gt;&lt;i style=&quot;&quot;&gt;, &lt;/i&gt;Question&lt;i style=&quot;&quot;&gt;, Answer ID)&lt;/i&gt;&lt;/span&gt;&lt;/li&gt;&lt;li&gt;&lt;span style=&quot;font-size: 14px;&quot;&gt;&lt;i&gt;Answer(&lt;/i&gt;&lt;u style=&quot;font-style: italic;&quot;&gt;Answer ID,&lt;/u&gt; AW TRUE, AWFALSE1, AWFALSE2, &lt;i&gt;QID&lt;/i&gt;&lt;u style=&quot;font-style: italic;&quot;&gt;)&lt;/u&gt;&lt;/span&gt;&lt;/li&gt;&lt;/ul&gt;&lt;/div&gt;&lt;h1 style=&quot;margin-top: 0px;&quot;&gt;&lt;br&gt;&lt;/h1&gt;&lt;h1 style=&quot;margin-top: 0px;&quot;&gt;&lt;br&gt;&lt;/h1&gt;&lt;h1 style=&quot;margin-top: 0px;&quot;&gt;&lt;br&gt;&lt;/h1&gt;&lt;h1 style=&quot;margin-top: 0px;&quot;&gt;&lt;br&gt;&lt;/h1&gt;&lt;h1 style=&quot;margin-top: 0px;&quot;&gt;&lt;br&gt;&lt;/h1&gt;&lt;h1 style=&quot;margin-top: 0px;&quot;&gt;&lt;br&gt;&lt;/h1&gt;&lt;h1 style=&quot;margin-top: 0px;&quot;&gt;Relation&lt;/h1&gt;&lt;div&gt;&lt;ul&gt;&lt;li&gt;&lt;font style=&quot;font-size: 14px;&quot;&gt;participates(&lt;i&gt;PNR,Course Nr&lt;/i&gt;)&lt;/font&gt;&lt;/li&gt;&lt;li&gt;&lt;font style=&quot;font-size: 14px;&quot;&gt;teaches(&lt;i&gt;PNR,Course Nr&lt;/i&gt;)&lt;/font&gt;&lt;/li&gt;&lt;li&gt;&lt;font style=&quot;font-size: 14px;&quot;&gt;prequisite&lt;i&gt;(LVANR_preqisite, LVANR&lt;/i&gt;)&lt;/font&gt;&lt;/li&gt;&lt;li&gt;&lt;font style=&quot;font-size: 14px;&quot;&gt;consists of(&lt;i&gt;LVANR, Learning Module ID, &lt;/i&gt;sequence)&lt;/font&gt;&lt;/li&gt;&lt;li&gt;&lt;font style=&quot;font-size: 14px;&quot;&gt;contains(&lt;i&gt;Learning Module ID, Name&lt;/i&gt;)&lt;/font&gt;&lt;/li&gt;&lt;li&gt;&lt;font style=&quot;font-size: 14px;&quot;&gt;tested/(&lt;i&gt;LVANR,Definition&lt;/i&gt;)&lt;/font&gt;&lt;/li&gt;&lt;li&gt;&lt;font style=&quot;font-size: 14px;&quot;&gt;comprises(MC ID, QID)&lt;/font&gt;&lt;/li&gt;&lt;li&gt;&lt;font style=&quot;font-size: 14px;&quot;&gt;answered(QID, Answer ID)&lt;/font&gt;&lt;/li&gt;&lt;/ul&gt;&lt;/div&gt;&lt;p&gt;&lt;br&gt;&lt;/p&gt;&lt;p&gt;&lt;br&gt;&lt;/p&gt;&lt;p&gt;&lt;br&gt;&lt;/p&gt;&lt;p&gt;&lt;br&gt;&lt;/p&gt;&lt;p&gt;&lt;br&gt;&lt;/p&gt;&lt;p&gt;&lt;br&gt;&lt;/p&gt;&lt;p&gt;&lt;br&gt;&lt;/p&gt;&lt;p&gt;&lt;br&gt;&lt;/p&gt;&lt;p&gt;&lt;br&gt;&lt;/p&gt;&lt;p&gt;&amp;nbsp;&lt;/p&gt;&lt;p&gt;&lt;br&gt;&lt;/p&gt;" style="text;html=1;whiteSpace=wrap;overflow=hidden;rounded=0;fontFamily=Helvetica;fontSize=11;fontColor=#1D3557;labelBackgroundColor=none;" parent="1" vertex="1">
          <mxGeometry x="-480" y="380" width="570" height="850" as="geometry" />
        </mxCell>
        <mxCell id="pLngcvN7gk5QqAFXUD4E-45" style="edgeStyle=orthogonalEdgeStyle;rounded=0;orthogonalLoop=1;jettySize=auto;html=1;exitX=1;exitY=0;exitDx=0;exitDy=0;entryX=1;entryY=0.5;entryDx=0;entryDy=0;strokeColor=#457B9D;fontColor=default;fillColor=#A8DADC;endArrow=none;startFill=0;labelBackgroundColor=none;" parent="1" source="pLngcvN7gk5QqAFXUD4E-40" target="pLngcvN7gk5QqAFXUD4E-44" edge="1">
          <mxGeometry relative="1" as="geometry">
            <mxPoint x="580" y="190" as="targetPoint" />
          </mxGeometry>
        </mxCell>
        <mxCell id="pLngcvN7gk5QqAFXUD4E-46" style="edgeStyle=orthogonalEdgeStyle;shape=connector;rounded=0;orthogonalLoop=1;jettySize=auto;html=1;exitX=0;exitY=0;exitDx=0;exitDy=0;entryX=0;entryY=0.5;entryDx=0;entryDy=0;strokeColor=#457B9D;align=center;verticalAlign=middle;fontFamily=Helvetica;fontSize=11;fontColor=default;labelBackgroundColor=none;startFill=0;endArrow=none;fillColor=#A8DADC;" parent="1" source="pLngcvN7gk5QqAFXUD4E-40" target="pLngcvN7gk5QqAFXUD4E-44" edge="1">
          <mxGeometry relative="1" as="geometry">
            <mxPoint x="460" y="190" as="targetPoint" />
          </mxGeometry>
        </mxCell>
        <mxCell id="pLngcvN7gk5QqAFXUD4E-40" value="Course" style="swimlane;childLayout=stackLayout;horizontal=1;startSize=50;horizontalStack=0;rounded=1;fontSize=14;fontStyle=0;strokeWidth=2;resizeParent=0;resizeLast=1;shadow=0;dashed=0;align=center;arcSize=4;whiteSpace=wrap;html=1;strokeColor=#457B9D;fontColor=#1D3557;fillColor=#A8DADC;labelBackgroundColor=none;" parent="1" vertex="1">
          <mxGeometry x="430" y="250" width="160" height="140" as="geometry" />
        </mxCell>
        <mxCell id="pLngcvN7gk5QqAFXUD4E-41" value="&lt;div&gt;&lt;u&gt;LVANR&lt;/u&gt;&lt;/div&gt;&lt;div&gt;Name&lt;/div&gt;&lt;div&gt;Size&lt;/div&gt;&lt;div&gt;Max_Participants&lt;/div&gt;&lt;div&gt;&lt;u&gt;&lt;br&gt;&lt;/u&gt;&lt;/div&gt;" style="align=left;strokeColor=none;fillColor=none;spacingLeft=4;spacingRight=4;fontSize=12;verticalAlign=top;resizable=0;rotatable=0;part=1;html=1;whiteSpace=wrap;fontColor=#1D3557;labelBackgroundColor=none;" parent="pLngcvN7gk5QqAFXUD4E-40" vertex="1">
          <mxGeometry y="50" width="160" height="90" as="geometry" />
        </mxCell>
        <mxCell id="pLngcvN7gk5QqAFXUD4E-44" value="prequisite" style="shape=rhombus;perimeter=rhombusPerimeter;whiteSpace=wrap;html=1;align=center;strokeColor=#457B9D;fontFamily=Helvetica;fontSize=11;fontColor=#1D3557;labelBackgroundColor=none;fillColor=#A8DADC;" parent="1" vertex="1">
          <mxGeometry x="460" y="150" width="120" height="60" as="geometry" />
        </mxCell>
        <mxCell id="pLngcvN7gk5QqAFXUD4E-50" value="Learning Module" style="swimlane;childLayout=stackLayout;horizontal=1;startSize=50;horizontalStack=0;rounded=1;fontSize=14;fontStyle=0;strokeWidth=2;resizeParent=0;resizeLast=1;shadow=0;dashed=0;align=center;arcSize=4;whiteSpace=wrap;html=1;strokeColor=#457B9D;fontColor=#1D3557;fillColor=#A8DADC;labelBackgroundColor=none;" parent="1" vertex="1">
          <mxGeometry x="680" y="590" width="160" height="120" as="geometry" />
        </mxCell>
        <mxCell id="pLngcvN7gk5QqAFXUD4E-51" value="&lt;div&gt;&lt;u&gt;Learning Module ID&lt;/u&gt;&lt;/div&gt;&lt;div&gt;Name&lt;/div&gt;" style="align=left;strokeColor=none;fillColor=none;spacingLeft=4;spacingRight=4;fontSize=12;verticalAlign=top;resizable=0;rotatable=0;part=1;html=1;whiteSpace=wrap;fontColor=#1D3557;labelBackgroundColor=none;" parent="pLngcvN7gk5QqAFXUD4E-50" vertex="1">
          <mxGeometry y="50" width="160" height="70" as="geometry" />
        </mxCell>
        <mxCell id="pLngcvN7gk5QqAFXUD4E-57" value="Objects" style="swimlane;childLayout=stackLayout;horizontal=1;startSize=50;horizontalStack=0;rounded=1;fontSize=14;fontStyle=0;strokeWidth=2;resizeParent=0;resizeLast=1;shadow=0;dashed=0;align=center;arcSize=4;whiteSpace=wrap;html=1;strokeColor=#457B9D;fontColor=#1D3557;fillColor=#A8DADC;labelBackgroundColor=none;" parent="1" vertex="1">
          <mxGeometry x="1150" y="610" width="160" height="120" as="geometry" />
        </mxCell>
        <mxCell id="pLngcvN7gk5QqAFXUD4E-58" value="&lt;u&gt;Name&lt;/u&gt;&lt;div&gt;Type&lt;/div&gt;" style="align=left;strokeColor=none;fillColor=none;spacingLeft=4;spacingRight=4;fontSize=12;verticalAlign=top;resizable=0;rotatable=0;part=1;html=1;whiteSpace=wrap;fontColor=#1D3557;labelBackgroundColor=none;" parent="pLngcvN7gk5QqAFXUD4E-57" vertex="1">
          <mxGeometry y="50" width="160" height="70" as="geometry" />
        </mxCell>
        <mxCell id="pLngcvN7gk5QqAFXUD4E-59" value="Person" style="swimlane;childLayout=stackLayout;horizontal=1;startSize=50;horizontalStack=0;rounded=1;fontSize=14;fontStyle=0;strokeWidth=2;resizeParent=0;resizeLast=1;shadow=0;dashed=0;align=center;arcSize=4;whiteSpace=wrap;html=1;strokeColor=#457B9D;fontColor=#1D3557;fillColor=#A8DADC;labelBackgroundColor=none;" parent="1" vertex="1">
          <mxGeometry x="-60" y="235" width="160" height="150" as="geometry" />
        </mxCell>
        <mxCell id="pLngcvN7gk5QqAFXUD4E-60" value="&lt;div&gt;&lt;u&gt;PNR&lt;/u&gt;&lt;/div&gt;&lt;div&gt;Name&lt;/div&gt;&lt;div&gt;&lt;br&gt;&lt;/div&gt;" style="align=left;strokeColor=none;fillColor=none;spacingLeft=4;spacingRight=4;fontSize=12;verticalAlign=top;resizable=0;rotatable=0;part=1;html=1;whiteSpace=wrap;fontColor=#1D3557;labelBackgroundColor=none;" parent="pLngcvN7gk5QqAFXUD4E-59" vertex="1">
          <mxGeometry y="50" width="160" height="100" as="geometry" />
        </mxCell>
        <mxCell id="pLngcvN7gk5QqAFXUD4E-61" value="Test Module" style="swimlane;childLayout=stackLayout;horizontal=1;startSize=50;horizontalStack=0;rounded=1;fontSize=14;fontStyle=0;strokeWidth=2;resizeParent=0;resizeLast=1;shadow=0;dashed=0;align=center;arcSize=4;whiteSpace=wrap;html=1;strokeColor=#457B9D;fontColor=#1D3557;fillColor=#A8DADC;labelBackgroundColor=none;" parent="1" vertex="1">
          <mxGeometry x="334" y="600" width="160" height="120" as="geometry" />
        </mxCell>
        <mxCell id="pLngcvN7gk5QqAFXUD4E-62" value="&lt;u&gt;Definition&lt;/u&gt;&lt;div&gt;&lt;u&gt;&lt;br&gt;&lt;/u&gt;&lt;/div&gt;" style="align=left;strokeColor=none;fillColor=none;spacingLeft=4;spacingRight=4;fontSize=12;verticalAlign=top;resizable=0;rotatable=0;part=1;html=1;whiteSpace=wrap;fontColor=#1D3557;labelBackgroundColor=none;" parent="pLngcvN7gk5QqAFXUD4E-61" vertex="1">
          <mxGeometry y="50" width="160" height="70" as="geometry" />
        </mxCell>
        <mxCell id="pLngcvN7gk5QqAFXUD4E-65" value="" style="edgeStyle=orthogonalEdgeStyle;shape=connector;rounded=0;orthogonalLoop=1;jettySize=auto;html=1;exitX=0.113;exitY=0.989;exitDx=0;exitDy=0;entryX=0.5;entryY=0;entryDx=0;entryDy=0;strokeColor=#457B9D;align=center;verticalAlign=middle;fontFamily=Helvetica;fontSize=11;fontColor=default;labelBackgroundColor=none;startFill=0;endArrow=none;fillColor=#A8DADC;exitPerimeter=0;" parent="1" source="pLngcvN7gk5QqAFXUD4E-41" target="pLngcvN7gk5QqAFXUD4E-64" edge="1">
          <mxGeometry relative="1" as="geometry">
            <mxPoint x="470" y="390" as="sourcePoint" />
            <mxPoint x="414" y="590" as="targetPoint" />
          </mxGeometry>
        </mxCell>
        <mxCell id="lkilGb8h1XhWtgKXXiLa-61" style="edgeStyle=orthogonalEdgeStyle;shape=connector;rounded=0;orthogonalLoop=1;jettySize=auto;html=1;exitX=0.5;exitY=1;exitDx=0;exitDy=0;entryX=0.5;entryY=0;entryDx=0;entryDy=0;strokeColor=#457B9D;align=center;verticalAlign=middle;fontFamily=Helvetica;fontSize=11;fontColor=#1D3557;labelBackgroundColor=default;startFill=0;endArrow=none;fillColor=#A8DADC;" parent="1" source="pLngcvN7gk5QqAFXUD4E-64" target="pLngcvN7gk5QqAFXUD4E-61" edge="1">
          <mxGeometry relative="1" as="geometry" />
        </mxCell>
        <mxCell id="pLngcvN7gk5QqAFXUD4E-64" value="tested" style="shape=rhombus;perimeter=rhombusPerimeter;whiteSpace=wrap;html=1;align=center;strokeColor=#457B9D;fontColor=#1D3557;fillColor=#A8DADC;labelBackgroundColor=none;" parent="1" vertex="1">
          <mxGeometry x="354" y="500" width="120" height="60" as="geometry" />
        </mxCell>
        <mxCell id="pLngcvN7gk5QqAFXUD4E-66" value="MC Test" style="swimlane;childLayout=stackLayout;horizontal=1;startSize=50;horizontalStack=0;rounded=1;fontSize=14;fontStyle=0;strokeWidth=2;resizeParent=0;resizeLast=1;shadow=0;dashed=0;align=center;arcSize=4;whiteSpace=wrap;html=1;strokeColor=#457B9D;fontColor=#1D3557;fillColor=#A8DADC;labelBackgroundColor=none;" parent="1" vertex="1">
          <mxGeometry x="10" y="810" width="160" height="120" as="geometry" />
        </mxCell>
        <mxCell id="pLngcvN7gk5QqAFXUD4E-67" value="&lt;div&gt;&lt;u&gt;MC_ID&lt;/u&gt;&lt;/div&gt;&lt;div&gt;Time&lt;/div&gt;" style="align=left;strokeColor=none;fillColor=none;spacingLeft=4;spacingRight=4;fontSize=12;verticalAlign=top;resizable=0;rotatable=0;part=1;html=1;whiteSpace=wrap;fontColor=#1D3557;labelBackgroundColor=none;" parent="pLngcvN7gk5QqAFXUD4E-66" vertex="1">
          <mxGeometry y="50" width="160" height="70" as="geometry" />
        </mxCell>
        <mxCell id="pLngcvN7gk5QqAFXUD4E-73" style="edgeStyle=orthogonalEdgeStyle;shape=connector;rounded=0;orthogonalLoop=1;jettySize=auto;html=1;entryX=0.83;entryY=1.05;entryDx=0;entryDy=0;strokeColor=#457B9D;align=center;verticalAlign=middle;fontFamily=Helvetica;fontSize=11;fontColor=default;labelBackgroundColor=none;startFill=0;endArrow=classic;fillColor=#A8DADC;endFill=1;entryPerimeter=0;exitX=0;exitY=0.5;exitDx=0;exitDy=0;" parent="1" source="pLngcvN7gk5QqAFXUD4E-68" target="pLngcvN7gk5QqAFXUD4E-72" edge="1">
          <mxGeometry relative="1" as="geometry">
            <mxPoint x="445" y="1115" as="targetPoint" />
          </mxGeometry>
        </mxCell>
        <mxCell id="pLngcvN7gk5QqAFXUD4E-68" value="external Test" style="swimlane;childLayout=stackLayout;horizontal=1;startSize=50;horizontalStack=0;rounded=1;fontSize=14;fontStyle=0;strokeWidth=2;resizeParent=0;resizeLast=1;shadow=0;dashed=0;align=center;arcSize=4;whiteSpace=wrap;html=1;strokeColor=#457B9D;fontColor=#1D3557;fillColor=#A8DADC;labelBackgroundColor=none;" parent="1" vertex="1">
          <mxGeometry x="334" y="810" width="160" height="120" as="geometry" />
        </mxCell>
        <mxCell id="pLngcvN7gk5QqAFXUD4E-69" value="&lt;div&gt;&lt;u&gt;Test ID&lt;/u&gt;&lt;/div&gt;" style="align=left;strokeColor=none;fillColor=none;spacingLeft=4;spacingRight=4;fontSize=12;verticalAlign=top;resizable=0;rotatable=0;part=1;html=1;whiteSpace=wrap;fontColor=#1D3557;labelBackgroundColor=none;" parent="pLngcvN7gk5QqAFXUD4E-68" vertex="1">
          <mxGeometry y="50" width="160" height="70" as="geometry" />
        </mxCell>
        <mxCell id="pLngcvN7gk5QqAFXUD4E-71" value="" style="edgeStyle=orthogonalEdgeStyle;shape=connector;rounded=0;orthogonalLoop=1;jettySize=auto;html=1;entryX=0.2;entryY=1;entryDx=0;entryDy=0;strokeColor=#457B9D;align=center;verticalAlign=middle;fontFamily=Helvetica;fontSize=11;fontColor=default;labelBackgroundColor=none;startFill=0;endArrow=classic;fillColor=#A8DADC;entryPerimeter=0;endFill=1;" parent="1" source="pLngcvN7gk5QqAFXUD4E-66" target="pLngcvN7gk5QqAFXUD4E-72" edge="1">
          <mxGeometry relative="1" as="geometry">
            <mxPoint x="300" y="1150" as="sourcePoint" />
            <mxPoint x="425.55999999999995" y="1116.12" as="targetPoint" />
          </mxGeometry>
        </mxCell>
        <mxCell id="lkilGb8h1XhWtgKXXiLa-6" value="" style="edgeStyle=orthogonalEdgeStyle;shape=connector;rounded=0;orthogonalLoop=1;jettySize=auto;html=1;strokeColor=#457B9D;align=center;verticalAlign=middle;fontFamily=Helvetica;fontSize=11;fontColor=#1D3557;labelBackgroundColor=default;startFill=0;endArrow=classic;fillColor=#A8DADC;endFill=1;entryX=0.5;entryY=1;entryDx=0;entryDy=0;" parent="1" source="pLngcvN7gk5QqAFXUD4E-72" target="pLngcvN7gk5QqAFXUD4E-62" edge="1">
          <mxGeometry relative="1" as="geometry">
            <mxPoint x="334" y="887.5" as="targetPoint" />
          </mxGeometry>
        </mxCell>
        <mxCell id="pLngcvN7gk5QqAFXUD4E-72" value="is_a" style="shape=hexagon;perimeter=hexagonPerimeter2;whiteSpace=wrap;html=1;fixedSize=1;strokeColor=#457B9D;fontFamily=Helvetica;fontSize=11;fontColor=#1D3557;labelBackgroundColor=none;fillColor=#A8DADC;" parent="1" vertex="1">
          <mxGeometry x="230" y="750" width="100" height="40" as="geometry" />
        </mxCell>
        <mxCell id="lkilGb8h1XhWtgKXXiLa-2" style="edgeStyle=orthogonalEdgeStyle;rounded=0;orthogonalLoop=1;jettySize=auto;html=1;entryX=1;entryY=0.5;entryDx=0;entryDy=0;endArrow=none;startFill=0;labelBackgroundColor=none;strokeColor=#457B9D;fontColor=default;" parent="1" source="lkilGb8h1XhWtgKXXiLa-1" target="pLngcvN7gk5QqAFXUD4E-11" edge="1">
          <mxGeometry relative="1" as="geometry" />
        </mxCell>
        <mxCell id="lkilGb8h1XhWtgKXXiLa-1" value="sequence" style="ellipse;whiteSpace=wrap;html=1;align=center;labelBackgroundColor=none;fillColor=#A8DADC;strokeColor=#457B9D;fontColor=#1D3557;" parent="1" vertex="1">
          <mxGeometry x="710" y="470" width="100" height="40" as="geometry" />
        </mxCell>
        <mxCell id="lkilGb8h1XhWtgKXXiLa-3" value="" style="edgeStyle=orthogonalEdgeStyle;rounded=0;orthogonalLoop=1;jettySize=auto;html=1;entryX=0;entryY=0.5;entryDx=0;entryDy=0;strokeColor=#457B9D;fontColor=default;fillColor=#A8DADC;endArrow=none;startFill=0;labelBackgroundColor=none;exitX=1;exitY=0.25;exitDx=0;exitDy=0;" parent="1" source="pLngcvN7gk5QqAFXUD4E-51" target="pLngcvN7gk5QqAFXUD4E-15" edge="1">
          <mxGeometry relative="1" as="geometry">
            <mxPoint x="840" y="658" as="sourcePoint" />
            <mxPoint x="1070" y="650" as="targetPoint" />
          </mxGeometry>
        </mxCell>
        <mxCell id="pLngcvN7gk5QqAFXUD4E-15" value="contains" style="shape=rhombus;perimeter=rhombusPerimeter;whiteSpace=wrap;html=1;align=center;strokeColor=#457B9D;fontColor=#1D3557;fillColor=#A8DADC;labelBackgroundColor=none;" parent="1" vertex="1">
          <mxGeometry x="900" y="620" width="120" height="60" as="geometry" />
        </mxCell>
        <mxCell id="lkilGb8h1XhWtgKXXiLa-7" value="Question" style="swimlane;childLayout=stackLayout;horizontal=1;startSize=50;horizontalStack=0;rounded=1;fontSize=14;fontStyle=0;strokeWidth=2;resizeParent=0;resizeLast=1;shadow=0;dashed=0;align=center;arcSize=4;whiteSpace=wrap;html=1;strokeColor=#457B9D;fontColor=#1D3557;fillColor=#A8DADC;labelBackgroundColor=none;" parent="1" vertex="1">
          <mxGeometry y="1070" width="160" height="120" as="geometry" />
        </mxCell>
        <mxCell id="lkilGb8h1XhWtgKXXiLa-8" value="&lt;div&gt;&lt;span style=&quot;background-color: transparent; color: light-dark(rgb(29, 53, 87), rgb(176, 196, 226));&quot;&gt;&lt;u&gt;QID&lt;/u&gt;&lt;/span&gt;&lt;/div&gt;&lt;div&gt;&lt;span style=&quot;background-color: transparent; color: light-dark(rgb(29, 53, 87), rgb(176, 196, 226));&quot;&gt;Question&lt;/span&gt;&lt;/div&gt;" style="align=left;strokeColor=none;fillColor=none;spacingLeft=4;spacingRight=4;fontSize=12;verticalAlign=top;resizable=0;rotatable=0;part=1;html=1;whiteSpace=wrap;fontColor=#1D3557;labelBackgroundColor=none;" parent="lkilGb8h1XhWtgKXXiLa-7" vertex="1">
          <mxGeometry y="50" width="160" height="70" as="geometry" />
        </mxCell>
        <mxCell id="lkilGb8h1XhWtgKXXiLa-27" value="" style="edgeStyle=orthogonalEdgeStyle;shape=connector;rounded=0;orthogonalLoop=1;jettySize=auto;html=1;strokeColor=#457B9D;align=center;verticalAlign=middle;fontFamily=Helvetica;fontSize=11;fontColor=#1D3557;labelBackgroundColor=default;startFill=0;endArrow=none;fillColor=#A8DADC;" parent="1" source="lkilGb8h1XhWtgKXXiLa-26" target="pLngcvN7gk5QqAFXUD4E-41" edge="1">
          <mxGeometry relative="1" as="geometry" />
        </mxCell>
        <mxCell id="lkilGb8h1XhWtgKXXiLa-35" style="edgeStyle=orthogonalEdgeStyle;shape=connector;rounded=0;orthogonalLoop=1;jettySize=auto;html=1;exitX=0;exitY=0.5;exitDx=0;exitDy=0;entryX=1;entryY=0.5;entryDx=0;entryDy=0;strokeColor=#457B9D;align=center;verticalAlign=middle;fontFamily=Helvetica;fontSize=11;fontColor=#1D3557;labelBackgroundColor=default;startFill=0;endArrow=none;fillColor=#A8DADC;" parent="1" source="lkilGb8h1XhWtgKXXiLa-26" target="pLngcvN7gk5QqAFXUD4E-60" edge="1">
          <mxGeometry relative="1" as="geometry">
            <mxPoint x="120" y="405" as="targetPoint" />
          </mxGeometry>
        </mxCell>
        <mxCell id="lkilGb8h1XhWtgKXXiLa-26" value="teaches" style="shape=rhombus;perimeter=rhombusPerimeter;whiteSpace=wrap;html=1;align=center;strokeColor=#457B9D;fontFamily=Helvetica;fontSize=11;fontColor=#1D3557;labelBackgroundColor=none;fillColor=#A8DADC;" parent="1" vertex="1">
          <mxGeometry x="210" y="325" width="120" height="60" as="geometry" />
        </mxCell>
        <mxCell id="lkilGb8h1XhWtgKXXiLa-30" value="" style="edgeStyle=orthogonalEdgeStyle;shape=connector;rounded=0;orthogonalLoop=1;jettySize=auto;html=1;exitX=0;exitY=0.5;exitDx=0;exitDy=0;entryX=1;entryY=0;entryDx=0;entryDy=0;strokeColor=#457B9D;align=center;verticalAlign=middle;fontFamily=Helvetica;fontSize=11;fontColor=default;labelBackgroundColor=none;startFill=0;endArrow=none;fillColor=#A8DADC;" parent="1" source="pLngcvN7gk5QqAFXUD4E-31" target="pLngcvN7gk5QqAFXUD4E-60" edge="1">
          <mxGeometry relative="1" as="geometry">
            <mxPoint x="110" y="157.5" as="targetPoint" />
            <mxPoint x="210" y="260" as="sourcePoint" />
          </mxGeometry>
        </mxCell>
        <mxCell id="lkilGb8h1XhWtgKXXiLa-36" style="edgeStyle=orthogonalEdgeStyle;shape=connector;rounded=0;orthogonalLoop=1;jettySize=auto;html=1;entryX=0.444;entryY=0.971;entryDx=0;entryDy=0;entryPerimeter=0;strokeColor=#457B9D;align=center;verticalAlign=middle;fontFamily=Helvetica;fontSize=11;fontColor=#1D3557;labelBackgroundColor=default;startFill=0;endArrow=none;fillColor=#A8DADC;" parent="1" source="lkilGb8h1XhWtgKXXiLa-37" target="pLngcvN7gk5QqAFXUD4E-67" edge="1">
          <mxGeometry relative="1" as="geometry" />
        </mxCell>
        <mxCell id="lkilGb8h1XhWtgKXXiLa-38" value="" style="edgeStyle=orthogonalEdgeStyle;shape=connector;rounded=0;orthogonalLoop=1;jettySize=auto;html=1;entryX=0.5;entryY=1;entryDx=0;entryDy=0;strokeColor=#457B9D;align=center;verticalAlign=middle;fontFamily=Helvetica;fontSize=11;fontColor=#1D3557;labelBackgroundColor=default;startFill=0;endArrow=none;fillColor=#A8DADC;" parent="1" source="lkilGb8h1XhWtgKXXiLa-7" target="lkilGb8h1XhWtgKXXiLa-37" edge="1">
          <mxGeometry relative="1" as="geometry">
            <mxPoint x="80" y="1070" as="sourcePoint" />
            <mxPoint x="81" y="928" as="targetPoint" />
          </mxGeometry>
        </mxCell>
        <mxCell id="lkilGb8h1XhWtgKXXiLa-37" value="comprises" style="shape=rhombus;perimeter=rhombusPerimeter;whiteSpace=wrap;html=1;align=center;strokeColor=#457B9D;fontColor=#1D3557;fillColor=#A8DADC;labelBackgroundColor=none;" parent="1" vertex="1">
          <mxGeometry x="20" y="970" width="120" height="60" as="geometry" />
        </mxCell>
        <mxCell id="lkilGb8h1XhWtgKXXiLa-39" value="N" style="text;html=1;align=center;verticalAlign=middle;resizable=0;points=[];autosize=1;strokeColor=none;fillColor=none;fontFamily=Helvetica;fontSize=11;fontColor=#1D3557;labelBackgroundColor=default;" parent="1" vertex="1">
          <mxGeometry x="385" y="228" width="30" height="30" as="geometry" />
        </mxCell>
        <mxCell id="lkilGb8h1XhWtgKXXiLa-40" value="M" style="text;html=1;align=center;verticalAlign=middle;resizable=0;points=[];autosize=1;strokeColor=none;fillColor=none;fontFamily=Helvetica;fontSize=11;fontColor=#1D3557;labelBackgroundColor=default;" parent="1" vertex="1">
          <mxGeometry x="95" y="233" width="30" height="30" as="geometry" />
        </mxCell>
        <mxCell id="lkilGb8h1XhWtgKXXiLa-41" value="(0,*)" style="text;html=1;align=center;verticalAlign=middle;resizable=0;points=[];autosize=1;strokeColor=none;fillColor=none;fontFamily=Helvetica;fontSize=11;fontColor=#1D3557;labelBackgroundColor=default;" parent="1" vertex="1">
          <mxGeometry x="90" y="263" width="40" height="30" as="geometry" />
        </mxCell>
        <mxCell id="lkilGb8h1XhWtgKXXiLa-42" value="(0, Max_Participans)" style="text;html=1;align=center;verticalAlign=middle;resizable=0;points=[];autosize=1;strokeColor=none;fillColor=none;fontFamily=Helvetica;fontSize=11;fontColor=#1D3557;labelBackgroundColor=default;" parent="1" vertex="1">
          <mxGeometry x="340" y="258" width="120" height="30" as="geometry" />
        </mxCell>
        <mxCell id="lkilGb8h1XhWtgKXXiLa-43" value="N" style="text;html=1;align=center;verticalAlign=middle;resizable=0;points=[];autosize=1;strokeColor=none;fillColor=none;fontFamily=Helvetica;fontSize=11;fontColor=#1D3557;labelBackgroundColor=default;" parent="1" vertex="1">
          <mxGeometry x="385" y="318" width="30" height="30" as="geometry" />
        </mxCell>
        <mxCell id="lkilGb8h1XhWtgKXXiLa-44" value="M" style="text;html=1;align=center;verticalAlign=middle;resizable=0;points=[];autosize=1;strokeColor=none;fillColor=none;fontFamily=Helvetica;fontSize=11;fontColor=#1D3557;labelBackgroundColor=default;" parent="1" vertex="1">
          <mxGeometry x="95" y="313" width="30" height="30" as="geometry" />
        </mxCell>
        <mxCell id="lkilGb8h1XhWtgKXXiLa-45" value="(0,4)" style="text;html=1;align=center;verticalAlign=middle;resizable=0;points=[];autosize=1;strokeColor=none;fillColor=none;fontFamily=Helvetica;fontSize=11;fontColor=#1D3557;labelBackgroundColor=default;" parent="1" vertex="1">
          <mxGeometry x="95" y="343" width="50" height="30" as="geometry" />
        </mxCell>
        <mxCell id="lkilGb8h1XhWtgKXXiLa-46" value="(1,2)" style="text;html=1;align=center;verticalAlign=middle;resizable=0;points=[];autosize=1;strokeColor=none;fillColor=none;fontFamily=Helvetica;fontSize=11;fontColor=#1D3557;labelBackgroundColor=default;" parent="1" vertex="1">
          <mxGeometry x="375" y="338" width="50" height="30" as="geometry" />
        </mxCell>
        <mxCell id="lkilGb8h1XhWtgKXXiLa-47" value="N" style="text;html=1;align=center;verticalAlign=middle;resizable=0;points=[];autosize=1;strokeColor=none;fillColor=none;fontFamily=Helvetica;fontSize=11;fontColor=#1D3557;labelBackgroundColor=default;" parent="1" vertex="1">
          <mxGeometry x="405" y="198" width="30" height="30" as="geometry" />
        </mxCell>
        <mxCell id="lkilGb8h1XhWtgKXXiLa-48" value="M" style="text;html=1;align=center;verticalAlign=middle;resizable=0;points=[];autosize=1;strokeColor=none;fillColor=none;fontFamily=Helvetica;fontSize=11;fontColor=#1D3557;labelBackgroundColor=default;" parent="1" vertex="1">
          <mxGeometry x="580" y="198" width="30" height="30" as="geometry" />
        </mxCell>
        <mxCell id="lkilGb8h1XhWtgKXXiLa-49" value="(0,*)" style="text;html=1;align=center;verticalAlign=middle;resizable=0;points=[];autosize=1;strokeColor=none;fillColor=none;fontFamily=Helvetica;fontSize=11;fontColor=#1D3557;labelBackgroundColor=default;" parent="1" vertex="1">
          <mxGeometry x="420" y="200" width="40" height="30" as="geometry" />
        </mxCell>
        <mxCell id="lkilGb8h1XhWtgKXXiLa-50" value="(0,*)" style="text;html=1;align=center;verticalAlign=middle;resizable=0;points=[];autosize=1;strokeColor=none;fillColor=none;fontFamily=Helvetica;fontSize=11;fontColor=#1D3557;labelBackgroundColor=default;" parent="1" vertex="1">
          <mxGeometry x="600" y="198" width="40" height="30" as="geometry" />
        </mxCell>
        <mxCell id="lkilGb8h1XhWtgKXXiLa-51" value="N" style="text;html=1;align=center;verticalAlign=middle;resizable=0;points=[];autosize=1;strokeColor=none;fillColor=none;fontFamily=Helvetica;fontSize=11;fontColor=#1D3557;labelBackgroundColor=default;" parent="1" vertex="1">
          <mxGeometry x="725" y="558" width="30" height="30" as="geometry" />
        </mxCell>
        <mxCell id="lkilGb8h1XhWtgKXXiLa-52" value="M" style="text;html=1;align=center;verticalAlign=middle;resizable=0;points=[];autosize=1;strokeColor=none;fillColor=none;fontFamily=Helvetica;fontSize=11;fontColor=#1D3557;labelBackgroundColor=default;" parent="1" vertex="1">
          <mxGeometry x="485" y="388" width="30" height="30" as="geometry" />
        </mxCell>
        <mxCell id="lkilGb8h1XhWtgKXXiLa-53" value="(1,*)" style="text;html=1;align=center;verticalAlign=middle;resizable=0;points=[];autosize=1;strokeColor=none;fillColor=none;fontFamily=Helvetica;fontSize=11;fontColor=#1D3557;labelBackgroundColor=default;" parent="1" vertex="1">
          <mxGeometry x="520" y="388" width="40" height="30" as="geometry" />
        </mxCell>
        <mxCell id="lkilGb8h1XhWtgKXXiLa-55" value="(0,*)" style="text;html=1;align=center;verticalAlign=middle;resizable=0;points=[];autosize=1;strokeColor=none;fillColor=none;fontFamily=Helvetica;fontSize=11;fontColor=#1D3557;labelBackgroundColor=default;" parent="1" vertex="1">
          <mxGeometry x="755" y="558" width="40" height="30" as="geometry" />
        </mxCell>
        <mxCell id="lkilGb8h1XhWtgKXXiLa-56" value="N" style="text;html=1;align=center;verticalAlign=middle;resizable=0;points=[];autosize=1;strokeColor=none;fillColor=none;fontFamily=Helvetica;fontSize=11;fontColor=#1D3557;labelBackgroundColor=default;" parent="1" vertex="1">
          <mxGeometry x="1085" y="628" width="30" height="30" as="geometry" />
        </mxCell>
        <mxCell id="lkilGb8h1XhWtgKXXiLa-57" value="M" style="text;html=1;align=center;verticalAlign=middle;resizable=0;points=[];autosize=1;strokeColor=none;fillColor=none;fontFamily=Helvetica;fontSize=11;fontColor=#1D3557;labelBackgroundColor=default;" parent="1" vertex="1">
          <mxGeometry x="845" y="618" width="30" height="30" as="geometry" />
        </mxCell>
        <mxCell id="lkilGb8h1XhWtgKXXiLa-58" value="(1,*)" style="text;html=1;align=center;verticalAlign=middle;resizable=0;points=[];autosize=1;strokeColor=none;fillColor=none;fontFamily=Helvetica;fontSize=11;fontColor=#1D3557;labelBackgroundColor=default;" parent="1" vertex="1">
          <mxGeometry x="1080" y="668" width="40" height="30" as="geometry" />
        </mxCell>
        <mxCell id="lkilGb8h1XhWtgKXXiLa-59" value="(0,*)" style="text;html=1;align=center;verticalAlign=middle;resizable=0;points=[];autosize=1;strokeColor=none;fillColor=none;fontFamily=Helvetica;fontSize=11;fontColor=#1D3557;labelBackgroundColor=default;" parent="1" vertex="1">
          <mxGeometry x="840" y="658" width="40" height="30" as="geometry" />
        </mxCell>
        <mxCell id="lkilGb8h1XhWtgKXXiLa-62" value="N" style="text;html=1;align=center;verticalAlign=middle;resizable=0;points=[];autosize=1;strokeColor=none;fillColor=none;fontFamily=Helvetica;fontSize=11;fontColor=#1D3557;labelBackgroundColor=default;" parent="1" vertex="1">
          <mxGeometry x="415" y="390" width="30" height="30" as="geometry" />
        </mxCell>
        <mxCell id="lkilGb8h1XhWtgKXXiLa-66" value="M" style="text;html=1;align=center;verticalAlign=middle;resizable=0;points=[];autosize=1;strokeColor=none;fillColor=none;fontFamily=Helvetica;fontSize=11;fontColor=#1D3557;labelBackgroundColor=default;" parent="1" vertex="1">
          <mxGeometry x="375" y="558" width="30" height="30" as="geometry" />
        </mxCell>
        <mxCell id="lkilGb8h1XhWtgKXXiLa-67" value="(0,*)" style="text;html=1;align=center;verticalAlign=middle;resizable=0;points=[];autosize=1;strokeColor=none;fillColor=none;fontFamily=Helvetica;fontSize=11;fontColor=#1D3557;labelBackgroundColor=default;" parent="1" vertex="1">
          <mxGeometry x="445" y="390" width="40" height="30" as="geometry" />
        </mxCell>
        <mxCell id="lkilGb8h1XhWtgKXXiLa-68" value="(1,*)" style="text;html=1;align=center;verticalAlign=middle;resizable=0;points=[];autosize=1;strokeColor=none;fillColor=none;fontFamily=Helvetica;fontSize=11;fontColor=#1D3557;labelBackgroundColor=default;" parent="1" vertex="1">
          <mxGeometry x="430" y="558" width="40" height="30" as="geometry" />
        </mxCell>
        <mxCell id="lkilGb8h1XhWtgKXXiLa-69" value="Answer" style="swimlane;childLayout=stackLayout;horizontal=1;startSize=50;horizontalStack=0;rounded=1;fontSize=14;fontStyle=0;strokeWidth=2;resizeParent=0;resizeLast=1;shadow=0;dashed=0;align=center;arcSize=4;whiteSpace=wrap;html=1;strokeColor=#457B9D;fontColor=#1D3557;fillColor=#A8DADC;labelBackgroundColor=none;" parent="1" vertex="1">
          <mxGeometry x="515" y="1068" width="160" height="120" as="geometry" />
        </mxCell>
        <mxCell id="lkilGb8h1XhWtgKXXiLa-70" value="&lt;div&gt;&lt;u&gt;Answer_ID&lt;/u&gt;&lt;/div&gt;&lt;div&gt;AW TRUE&lt;/div&gt;&lt;div&gt;AW FALSE1&lt;/div&gt;&lt;div&gt;AW FALSE2&lt;/div&gt;" style="align=left;strokeColor=none;fillColor=none;spacingLeft=4;spacingRight=4;fontSize=12;verticalAlign=top;resizable=0;rotatable=0;part=1;html=1;whiteSpace=wrap;fontColor=#1D3557;labelBackgroundColor=none;" parent="lkilGb8h1XhWtgKXXiLa-69" vertex="1">
          <mxGeometry y="50" width="160" height="70" as="geometry" />
        </mxCell>
        <mxCell id="lkilGb8h1XhWtgKXXiLa-71" style="edgeStyle=orthogonalEdgeStyle;shape=connector;rounded=0;orthogonalLoop=1;jettySize=auto;html=1;exitX=1;exitY=0.25;exitDx=0;exitDy=0;entryX=0;entryY=0.5;entryDx=0;entryDy=0;strokeColor=#457B9D;align=center;verticalAlign=middle;fontFamily=Helvetica;fontSize=11;fontColor=#1D3557;labelBackgroundColor=default;startFill=0;endArrow=none;fillColor=#A8DADC;" parent="1" source="lkilGb8h1XhWtgKXXiLa-72" target="lkilGb8h1XhWtgKXXiLa-69" edge="1">
          <mxGeometry relative="1" as="geometry" />
        </mxCell>
        <mxCell id="lkilGb8h1XhWtgKXXiLa-73" value="" style="edgeStyle=orthogonalEdgeStyle;shape=connector;rounded=0;orthogonalLoop=1;jettySize=auto;html=1;exitX=1;exitY=0.25;exitDx=0;exitDy=0;entryX=0;entryY=0.5;entryDx=0;entryDy=0;strokeColor=#457B9D;align=center;verticalAlign=middle;fontFamily=Helvetica;fontSize=11;fontColor=#1D3557;labelBackgroundColor=default;startFill=0;endArrow=none;fillColor=#A8DADC;" parent="1" source="lkilGb8h1XhWtgKXXiLa-8" target="lkilGb8h1XhWtgKXXiLa-72" edge="1">
          <mxGeometry relative="1" as="geometry">
            <mxPoint x="160" y="1138" as="sourcePoint" />
            <mxPoint x="390" y="1130" as="targetPoint" />
          </mxGeometry>
        </mxCell>
        <mxCell id="lkilGb8h1XhWtgKXXiLa-72" value="answered" style="shape=rhombus;perimeter=rhombusPerimeter;whiteSpace=wrap;html=1;align=center;strokeColor=#457B9D;fontColor=#1D3557;fillColor=#A8DADC;labelBackgroundColor=none;" parent="1" vertex="1">
          <mxGeometry x="240" y="1109" width="120" height="60" as="geometry" />
        </mxCell>
        <mxCell id="lkilGb8h1XhWtgKXXiLa-74" value="N" style="text;html=1;align=center;verticalAlign=middle;resizable=0;points=[];autosize=1;strokeColor=none;fillColor=none;fontFamily=Helvetica;fontSize=11;fontColor=#1D3557;labelBackgroundColor=default;" parent="1" vertex="1">
          <mxGeometry x="50" y="1040" width="30" height="30" as="geometry" />
        </mxCell>
        <mxCell id="lkilGb8h1XhWtgKXXiLa-75" value="M" style="text;html=1;align=center;verticalAlign=middle;resizable=0;points=[];autosize=1;strokeColor=none;fillColor=none;fontFamily=Helvetica;fontSize=11;fontColor=#1D3557;labelBackgroundColor=default;" parent="1" vertex="1">
          <mxGeometry x="40" y="928" width="30" height="30" as="geometry" />
        </mxCell>
        <mxCell id="lkilGb8h1XhWtgKXXiLa-76" value="(1,*)" style="text;html=1;align=center;verticalAlign=middle;resizable=0;points=[];autosize=1;strokeColor=none;fillColor=none;fontFamily=Helvetica;fontSize=11;fontColor=#1D3557;labelBackgroundColor=default;" parent="1" vertex="1">
          <mxGeometry x="100" y="938" width="40" height="30" as="geometry" />
        </mxCell>
        <mxCell id="lkilGb8h1XhWtgKXXiLa-77" value="(0,*)" style="text;html=1;align=center;verticalAlign=middle;resizable=0;points=[];autosize=1;strokeColor=none;fillColor=none;fontFamily=Helvetica;fontSize=11;fontColor=#1D3557;labelBackgroundColor=default;" parent="1" vertex="1">
          <mxGeometry x="100" y="1038" width="40" height="30" as="geometry" />
        </mxCell>
        <mxCell id="lkilGb8h1XhWtgKXXiLa-78" value="N" style="text;html=1;align=center;verticalAlign=middle;resizable=0;points=[];autosize=1;strokeColor=none;fillColor=none;fontFamily=Helvetica;fontSize=11;fontColor=#1D3557;labelBackgroundColor=default;" parent="1" vertex="1">
          <mxGeometry x="385" y="1088" width="30" height="30" as="geometry" />
        </mxCell>
        <mxCell id="wIPH3ZjNVo6cEQk1DniA-1" value="1" style="text;html=1;align=center;verticalAlign=middle;resizable=0;points=[];autosize=1;strokeColor=none;fillColor=none;" vertex="1" parent="1">
          <mxGeometry x="175" y="1098" width="30" height="30" as="geometry" />
        </mxCell>
        <mxCell id="wIPH3ZjNVo6cEQk1DniA-2" value="(3,3)" style="text;html=1;align=center;verticalAlign=middle;resizable=0;points=[];autosize=1;strokeColor=none;fillColor=none;" vertex="1" parent="1">
          <mxGeometry x="175" y="1148" width="50" height="30" as="geometry" />
        </mxCell>
        <mxCell id="wIPH3ZjNVo6cEQk1DniA-3" value="(0,1)" style="text;html=1;align=center;verticalAlign=middle;resizable=0;points=[];autosize=1;strokeColor=none;fillColor=none;" vertex="1" parent="1">
          <mxGeometry x="465" y="1138" width="50" height="30" as="geometry" />
        </mxCell>
      </root>
    </mxGraphModel>
  </diagram>
</mxfile>
